<svg width="512" height="512" viewBox="0 0 512 512" fill="none" xmlns="http://www.w3.org/2000/svg">
  <circle cx="256" cy="256" r="240" stroke="#2DADE2" stroke-width="32" fill="white"/>
  
  <!-- Mosque Silhouette -->
  <g fill="#333333">
    <!-- Tall Minarets -->
    <path d="M152 284h18v76h-18zM152 284l9-34 9 34h-18z"/>
    <path d="M342 284h18v76h-18zM342 284l9-34 9 34h-18z"/>
    <!-- Central Dome -->
    <path d="M256 220c-36 0-66 28-66 62v78h132v-78c0-34-30-62-66-62z"/>
    <!-- Crescent Moon -->
    <path d="M256 195c-5 0-9 4.5-9 10s4 10 9 10 9-4.5 9-10-4-10-9-10zm2 4c2.5 0 4.5 2.5 4.5 6s-2 6-4.5 6-4.5-2.5-4.5-6 2-6 4.5-6z" clip-rule="evenodd" fill-rule="evenodd" transform="translate(0, -5) scale(0.8, 0.8) translate(-64, -48.7)"/>
    <path d="M256 182c-3.3 0-6 2.7-6 6s2.7 6 6 6 6-2.7 6-6-2.7-6-6-6z" transform="translate(0, -4)"/>
  </g>
  
  <!-- Clock Overlay -->
  <circle cx="340" cy="340" r="85" fill="white" stroke="#333333" stroke-width="24"/>
  <path d="M340 300v40h30" stroke="#333333" stroke-width="20" stroke-linecap="round" stroke-linejoin="round"/>
</svg>
